<svg xmlns="http://www.w3.org/2000/svg" xmlns:xlink="http://www.w3.org/1999/xlink" version="1.1" x="0px" y="0px" viewBox="0 0 55 68.75" style="enable-background:new 0 0 55 55;" xml:space="preserve"><g><path d="M13,50.9c0.1,0.5,0.7,0.7,1.2,0.8c0.5,0.1,1,0.1,1.6,0.1c0.6,0,1.2,0,1.9,0c5.8,0.1,2.2,0,16.5,0.1c1.1,0,2.2,0,3.4,0   c1.2,0,2.4,0,3.7-0.1c0.6-0.1,1.3-0.2,2-0.5c0.6-0.2,1.4-0.7,1.8-1.4c0.4-0.7,0.5-1.4,0.6-2.1c0.1-0.7,0.1-1.3,0.1-2   c0-0.7,0-1.2,0.1-1.9c0.2-2.5,0.1-1.1,0.3-5.6c0.4-7.7,0.3-15.8-0.3-23.6c-0.1-1.3-0.4-2.7-1.2-3.4c-0.4-0.4-0.9-0.5-1.3-0.5   c-0.4,0-0.7,0-0.9,0c-0.1,0-0.1,0-0.2,0c0-0.2-0.1-0.3-0.2-0.5c-0.2-0.5-0.6-1.1-1.1-1.4c-0.6-0.3-1.2-0.4-1.6-0.4   c-0.5,0-1-0.1-1.4-0.1c-1.4-0.1-2.7,0-4,0c-0.2-0.4-0.4-0.8-0.7-1.2c-0.5-0.6-1.3-1.1-2.1-1.2c-0.4-0.1-0.8-0.1-1.2,0   c-0.4,0.1-0.6,0.1-0.7,0.1c-0.2,0-0.5-0.4-0.8-1c-0.6-1.1-1.7-2-2.9-2.1c-0.6-0.1-1.2,0.1-1.6,0.4c-0.4,0.3-0.8,0.7-1,1.1   c-0.5,0.8-0.4,1.6-0.4,2.1c0,0.4-0.4,0.6-0.7,0.7c-0.3,0.1-0.4,0.1-0.4,0.2c0,0,0.2,0.1,0.5,0.1c0.2,0,0.4,0,0.6-0.1   C22.6,7.3,22.9,7,23,6.7c0.2-0.6,0.2-1.2,0.6-1.8c0.4-0.5,1.1-1,1.8-0.9c0.8,0.1,1.5,0.8,2,1.7c0.1,0.2,0.2,0.5,0.5,0.8   c0.2,0.3,0.6,0.7,1.1,0.8c0.5,0.1,0.9,0,1.2,0c0.3,0,0.5,0,0.8,0c1,0.2,1.8,1.2,2,2.4c0.1,0.6,0.1,1.2-0.2,1.7   c-0.2,0.5-0.6,0.9-1.2,1.1c-1.1,0.4-2.7,0.2-4.1,0.2c-1.4,0-2.8,0-4.1,0c-1.3,0-2.6,0.1-3.6,0c-0.5-0.1-0.8-0.2-1.1-0.5   c-0.2-0.3-0.3-0.8-0.4-1.2c-0.1-0.9-0.1-1.9,0.1-2.4c0.2-0.6,0.8-0.7,1.4-0.8c1.1-0.2,1.7-0.3,1.7-0.4c0-0.1-0.6-0.2-1.8-0.2   c-0.3,0-0.6,0-1,0.2c-0.4,0.1-0.8,0.4-1,0.9c-0.1,0.2-0.2,0.5-0.2,0.7c-1.8-0.1-3.4-0.3-4.8-0.1c-0.9,0.1-1.7,0.3-2.3,0.6   C9.6,9.9,9,10.3,8.9,10.8c-0.2,0.5-0.1,0.9-0.1,1.1c0,0.2,0,0.4,0.1,0.4c0,0,0-0.1,0.1-0.4c0-0.2,0.1-0.6,0.3-1   c0.2-0.4,0.6-0.7,1.3-0.9c0.6-0.2,1.4-0.4,2.2-0.5c1.3-0.1,2.9,0.1,4.6,0.2c0,0.5,0,0.9,0,1.4c0,0.5,0.1,1.1,0.5,1.7   c0.2,0.3,0.5,0.6,0.8,0.8c0.3,0.2,0.7,0.3,1,0.3c0.7,0.1,1.3,0.1,1.9,0.1c0.6,0,1.2,0,1.9,0c4.9,0.1,3.6,0.1,6.3,0.1   c0.8,0,1.6,0,2.5-0.4c0.9-0.3,1.6-1.1,1.9-1.9c0.3-0.8,0.4-1.7,0.2-2.5c1.2,0,2.4,0,3.6,0.1c0.9,0.1,2,0,2.5,0.4   c0.6,0.3,0.8,1.2,0.9,2.1c0.1,1.9,0.2,4,0.2,6c0.1,4.2,0.1,8.5-0.1,13.1c-0.1,2.3-0.2,4.6-0.3,6.9c-0.1,1.2-0.2,2.3-0.2,3.5   c-0.1,1.2,0,2.5-0.1,3.6c-0.1,0.5-0.2,1.1-0.4,1.5c-0.2,0.3-0.5,0.6-1,0.8c-0.9,0.4-2.1,0.5-3.2,0.5c-1.1,0-2.3,0-3.5,0   c-1.2,0-2.3,0-3.4,0c-14.9,0.2-12.5,0.2-16.2,0.3c-1,0-2.2,0.1-2.6-0.2c-0.1-0.1-0.1-0.1-0.1-0.2c0-0.1-0.1-0.4-0.1-0.6   c0-0.5,0-1,0-1.4c-0.1-3.8,0-0.9-0.2-13.2c0-6.3-0.5-11.4-0.7-15C9.1,16,9,14.6,9,13.7c-0.1-0.9-0.1-1.4-0.2-1.4   c0,0-0.1,0.5-0.1,1.4c0,0.9,0,2.3,0,4.1c0,3.5,0.3,8.6,0.2,14.9c0,12.1,0,9.2,0,13.2c0,0.5,0,1,0,1.5c0,0.3,0,0.5,0.1,0.9   c0.1,0.3,0.3,0.8,0.7,1c0.7,0.4,1.2,0.4,1.8,0.4c1.8,0,1.6,0,1.6,0c0,0.1,0,0.2,0,0.4C12.9,50.2,12.9,50.5,13,50.9z M17.5,51.1   c0-0.1-0.1-0.2-0.1-0.4c-0.1-0.2-0.2-0.4-0.3-0.7c-0.1-0.2-0.2-0.4-0.3-0.5c0.6,0,1.2,0,1.8,0c-0.1,0.3-0.1,0.7,0.1,1.2   c0.1,0.2,0.2,0.3,0.3,0.4c-0.5,0-0.9,0-1.3,0C17.6,51.1,17.6,51.1,17.5,51.1z M25.7,50.6c0.1,0.1,0.1,0.2,0.2,0.2   c-0.8,0-1.5,0-2.2,0.1c0-0.3-0.2-0.7-0.4-1c-0.1-0.1-0.2-0.3-0.4-0.4c0.8,0,1.7,0,2.5,0C25.3,49.7,25.4,50.2,25.7,50.6z M22.1,50.7   c0.1,0.1,0.1,0.2,0.2,0.2c-0.7,0-1.4,0.1-2.1,0.1c0.1-0.3,0-0.7-0.2-1c-0.1-0.2-0.2-0.3-0.4-0.5c0.7,0,1.4,0,2.2,0   C21.7,49.8,21.7,50.3,22.1,50.7z M45.1,14.9c0,0.5,0,0.9,0,1.4c-0.6-0.2-1.8-0.6-2.5-0.6c0-0.7-0.1-1.3-0.1-2   c0.8,0.5,1.9,0.6,2.5,0.4C45,14.3,45.1,14.6,45.1,14.9z M42,45.4c0-0.3,0.1-0.6,0.1-0.9c0.6,0.4,1.6,0.7,2.2,0.6c0,0.8,0,0.5,0,1.5   c-0.7-0.4-1.4-0.9-2.3-1C42,45.5,42,45.4,42,45.4z M44.4,43.9c-0.6-0.4-1.6-0.7-2.3-0.6c0-1.1,0-1.2,0.1-1.7   c0.7,0.4,1.5,0.7,2.3,0.6C44.4,42.8,44.4,43.9,44.4,43.9z M45.2,23.7c-0.2-0.1-0.4-0.2-0.7-0.3c-0.6-0.3-1.2-0.5-1.7-0.5   c0-0.7,0-1.5,0-2.2c0.3,0.2,0.6,0.3,0.9,0.5c0.5,0.1,1,0.2,1.4,0.1C45.2,22,45.2,22.8,45.2,23.7z M42.8,24c0.3,0.2,0.6,0.4,1.1,0.6   c0.3,0.1,0.6,0.3,1,0.3c0.1,0,0.2,0,0.3,0c0,0.9,0,1.8,0,2.8c-0.7-0.4-1.7-0.7-2.3-0.8C42.8,26,42.8,25,42.8,24z M44.9,34.6   c-0.1-0.1-0.1-0.1-0.2-0.2c-0.2-0.1-0.5-0.4-0.9-0.5c-0.4-0.1-0.8-0.2-1.1-0.2c0-0.7,0.1-1.4,0.1-2.1c0.2,0.1,0.3,0.2,0.5,0.2   c0.8,0.2,1.4,0.1,1.8-0.1C45,32.6,45,33.6,44.9,34.6z M42.6,34.9c0.2,0.1,0.4,0.3,0.7,0.3c0.4,0.1,0.8,0.2,1.2,0.1   c0.1,0,0.2-0.1,0.3-0.1c0,0.9-0.1,1.7-0.1,2.6c-0.2-0.1-0.5-0.2-0.7-0.3c-0.7-0.2-1.3-0.4-1.6-0.3C42.5,36.5,42.5,35.7,42.6,34.9z    M45,31c-0.3-0.2-0.8-0.4-1.4-0.6c-0.3-0.1-0.6-0.1-0.9-0.2c0-0.7,0-1.4,0-2.1c0.7,0.5,1.7,0.7,2.3,0.6C45.1,29.5,45.1,30.3,45,31z    M45.1,20c-0.6-0.2-1.8-0.6-2.4-0.7c0-0.4,0-0.8,0-1.2c0-0.4,0-0.8,0-1.3c0.8,0.5,1.7,0.7,2.4,0.5C45.1,18,45.1,19.3,45.1,20z    M42.4,38.1c0.4,0.6,1.4,1.1,2.3,1c0,0.7-0.1,1.3-0.1,2c-0.5-0.2-1.7-0.6-2.3-0.8C42.3,39.6,42.4,38.1,42.4,38.1z M41.5,47.4   c0.1-0.2,0.2-0.4,0.3-0.6c0.2,0.2,0.5,0.4,0.8,0.5c0.5,0.3,1.2,0.4,1.7,0.4c-0.1,0.6-0.2,1.2-0.4,1.7c0,0,0,0,0,0   c-0.2-0.1-0.3-0.1-0.5-0.1c-0.2-0.1-0.4-0.2-0.9-0.5c-0.6-0.3-1.1-0.5-1.5-0.6C41.1,47.9,41.3,47.7,41.5,47.4z M42.4,11.2   c0.5,0.1,1.3,0.1,1.9,0.7c0.3,0.3,0.5,0.7,0.6,1.3c-0.5-0.3-1.6-0.5-2.2-0.6c-0.1,0-0.1,0-0.2,0c0-0.2,0-0.4,0-0.6   c0-0.3-0.1-0.6-0.1-0.8C42.3,11.2,42.3,11.2,42.4,11.2z M39.7,48.8c0.2-0.1,0.3-0.2,0.5-0.2c0.1,0.4,0.6,1,1.4,1.4   c0.2,0.1,0.4,0.2,0.7,0.3c-0.4,0.1-0.9,0.2-1.3,0.3c-0.4,0.1-0.9,0.1-1.3,0.1c-0.3-0.5-0.9-1.1-1.3-1.4   C38.9,49,39.3,48.9,39.7,48.8z M36,49.4c0.4,0,0.9,0,1.3-0.1c0,0.4,0.2,0.8,0.6,1.3c-0.1,0-0.2,0-0.4,0c-0.5,0-0.9,0-1.4,0   c-0.2-0.3-0.4-0.5-0.6-0.8c-0.1-0.1-0.2-0.2-0.3-0.4C35.5,49.4,35.8,49.4,36,49.4z M33.8,49.4c0.1,0.4,0.3,0.8,0.6,1.2   c-0.4,0,0.2,0-3.1,0.1c0-0.3-0.2-0.6-0.4-0.9c-0.1-0.2-0.3-0.3-0.5-0.4C32.9,49.4,32.4,49.4,33.8,49.4z M29.5,49.4   c-0.2,0.3-0.1,0.8,0.3,1.3c0,0,0,0,0,0c-0.9,0-1.7,0-2.6,0.1c0-0.3-0.2-0.7-0.4-1c-0.1-0.1-0.2-0.3-0.3-0.4   C28,49.4,29.1,49.4,29.5,49.4z M15.7,49.5c-0.1,0.3,0,0.7,0.2,1.1c0.1,0.2,0.2,0.4,0.4,0.5c-0.1,0-0.2,0-0.4,0   c-0.6,0-1.1,0.1-1.5,0c-0.4,0-0.8-0.2-0.9-0.4c-0.1-0.3-0.2-0.6-0.2-0.8c0-0.2,0-0.3,0-0.4C14,49.5,14.8,49.5,15.7,49.5z"/><path d="M16,22.6c0.9,0.9,2.1,1.1,3.1,0.9c0.9-0.2,1.5-0.7,1.8-1.1c0.3-0.4,0.3-0.7,0.2-0.7c-0.1,0-0.3,0.1-0.6,0.4   c-0.3,0.2-0.8,0.5-1.5,0.5c-0.6,0-1.5-0.2-2-0.9c-0.6-0.6-1-1.5-0.6-2.3c0.4-0.7,1.3-1.1,2.2-0.9c0.9,0.1,1.6,0.5,2,1   c0.9,1,0.4,2.1,0.6,2.1c0.1,0,0.3-0.1,0.5-0.6c0.2-0.5,0.2-1.3-0.3-2.1c-0.5-0.8-1.4-1.5-2.6-1.8c-0.6-0.1-1.3-0.1-2,0.1   C16,17.5,15.4,18,15,18.7c-0.4,0.7-0.4,1.6-0.1,2.3C15.2,21.6,15.6,22.2,16,22.6z"/><path d="M18.7,38.7c-0.6-0.1-1.3-0.1-2,0.1C16,39,15.4,39.5,15,40.3c-0.4,0.7-0.4,1.6-0.1,2.3c0.3,0.7,0.7,1.2,1.1,1.6   c0.9,0.9,2.1,1.1,3.1,0.9c0.9-0.2,1.5-0.7,1.8-1.1c0.3-0.4,0.3-0.7,0.2-0.7c-0.1,0-0.3,0.1-0.6,0.4C20.1,43.8,19.6,44,19,44   c-0.6,0-1.5-0.2-2-0.9c-0.6-0.6-1-1.5-0.6-2.3c0.4-0.7,1.3-1.1,2.2-0.9c0.9,0.1,1.6,0.5,2,1c0.9,1,0.4,2.1,0.6,2.1   c0.1,0,0.3-0.1,0.5-0.6c0.2-0.5,0.2-1.3-0.3-2.1C20.9,39.6,19.9,38.9,18.7,38.7z"/><path d="M15.8,33.1c0.1,0.1,0.3,0.2,0.6,0.3c0.3,0.1,0.6,0.1,0.8-0.1c0.5-0.2,0.8-0.6,1-0.9c0.2-0.3,0.4-0.5,0.6-0.8   c1.5-2.2,3-3.9,2.8-4.2c-0.2-0.3-2.3,1-3.9,3.3c-0.2,0.3-0.4,0.6-0.6,0.9c-0.1,0.2-0.3,0.4-0.4,0.4c0,0,0,0.1-0.2,0   c-0.2-0.1-0.4-0.2-0.6-0.4c-1.8-0.9-2-0.6-0.6,0.8C15.4,32.8,15.6,33,15.8,33.1z"/><ellipse cx="30.1" cy="43.5" rx="4.5" ry="0.7"/><path d="M32.7,40.6c0-0.4-1.6-0.7-3.7-0.7s-3.7,0.3-3.7,0.7c0,0.4,1.6,0.7,3.7,0.7S32.7,41,32.7,40.6z"/><ellipse cx="29.9" cy="32" rx="4.5" ry="0.7"/><path d="M32.6,29.6c0-0.4-1.6-0.7-3.7-0.7s-3.7,0.3-3.7,0.7s1.6,0.7,3.7,0.7S32.6,30,32.6,29.6z"/><path d="M25.3,21.2c0,0.4,2,0.7,4.5,0.7s4.5-0.3,4.5-0.7s-2-0.7-4.5-0.7S25.3,20.8,25.3,21.2z"/><path d="M28.5,19.9c2,0,3.7-0.3,3.7-0.7s-1.6-0.7-3.7-0.7s-3.7,0.3-3.7,0.7S26.5,19.9,28.5,19.9z"/></g><text x="0" y="70" fill="#000000" font-size="5px" font-weight="bold" font-family="'Helvetica Neue', Helvetica, Arial-Unicode, Arial, Sans-serif">Created by Smashing Stocks</text><text x="0" y="75" fill="#000000" font-size="5px" font-weight="bold" font-family="'Helvetica Neue', Helvetica, Arial-Unicode, Arial, Sans-serif">from the Noun Project</text></svg>