<?xml version="1.0" encoding="UTF-8"?>
<!DOCTYPE svg PUBLIC "-//W3C//DTD SVG 1.1//EN" "http://www.w3.org/Graphics/SVG/1.1/DTD/svg11.dtd">
<svg xmlns="http://www.w3.org/2000/svg" version="1.1" width="500px" height="102px" style="shape-rendering:geometricPrecision; text-rendering:geometricPrecision; image-rendering:optimizeQuality; fill-rule:evenodd; clip-rule:evenodd" xmlns:xlink="http://www.w3.org/1999/xlink">
<g><path style="opacity:0.984" fill="#000000" d="M 95.5,15.5 C 110.848,15.1673 126.181,15.5006 141.5,16.5C 133.833,16.8333 126.167,17.1667 118.5,17.5C 110.47,17.4976 102.803,16.8309 95.5,15.5 Z"/></g>
<g><path style="opacity:0.984" fill="#000000" d="M 226.5,15.5 C 241.848,15.1673 257.181,15.5006 272.5,16.5C 264.833,16.8333 257.167,17.1667 249.5,17.5C 241.47,17.4976 233.803,16.8309 226.5,15.5 Z"/></g>
<g><path style="opacity:0.778" fill="#000000" d="M 12.5,17.5 C 24.5046,17.3335 36.5046,17.5001 48.5,18C 66.713,22.2454 76.0463,33.7454 76.5,52.5C 76.0463,71.2546 66.713,82.7546 48.5,87C 36.5046,87.4999 24.5046,87.6665 12.5,87.5C 12.5,75.8333 12.5,64.1667 12.5,52.5C 13.5,52.5 14.5,52.5 15.5,52.5C 15.5,63.5 15.5,74.5 15.5,85.5C 24.8393,85.6665 34.1726,85.4998 43.5,85C 65.4681,81.0181 75.3015,67.8514 73,45.5C 69.1773,30.1561 59.3439,21.6561 43.5,20C 32.7848,20.1471 22.4514,19.3137 12.5,17.5 Z"/></g>
<g><path style="opacity:0.707" fill="#000000" d="M 149.5,17.5 C 150.822,17.33 151.989,17.6634 153,18.5C 162.392,40.2847 172.059,61.9514 182,83.5C 191.941,61.9514 201.608,40.2847 211,18.5C 212.183,17.269 213.349,17.269 214.5,18.5C 204.454,41.4766 194.12,64.3099 183.5,87C 182.5,87.6667 181.5,87.6667 180.5,87C 169.68,64.0349 159.346,40.8682 149.5,17.5 Z"/></g>
<g><path style="opacity:0.792" fill="#000000" d="M 293.5,17.5 C 294.5,17.5 295.5,17.5 296.5,17.5C 296.5,40.1667 296.5,62.8333 296.5,85.5C 310.516,85.1674 324.516,85.5008 338.5,86.5C 323.515,87.4993 308.515,87.8327 293.5,87.5C 293.5,64.1667 293.5,40.8333 293.5,17.5 Z"/></g>
<g><path style="opacity:0.722" fill="#000000" d="M 370.5,17.5 C 401.173,15.0108 416.006,29.0108 415,59.5C 411.885,72.5928 404.051,81.4261 391.5,86C 375.323,90.3326 361.49,86.4993 350,74.5C 339.018,56.5623 340.851,40.0623 355.5,25C 360.313,21.9267 365.313,19.4267 370.5,17.5 Z M 375.5,19.5 C 403.454,21.2786 415.287,35.9453 411,63.5C 400.911,83.1244 385.411,89.2911 364.5,82C 348.055,72.5991 342.555,58.7657 348,40.5C 353.59,28.7347 362.757,21.7347 375.5,19.5 Z"/></g>
<g><path style="opacity:0.73" fill="#000000" d="M 454.5,17.5 C 467.14,15.3284 478.14,18.4951 487.5,27C 486.975,27.6924 486.308,28.1924 485.5,28.5C 470.354,16.6954 455.02,16.5287 439.5,28C 426.239,42.8593 425.406,58.3593 437,74.5C 448.164,84.7333 460.997,87.5667 475.5,83C 478.759,81.7894 481.592,79.9561 484,77.5C 484.5,69.1733 484.666,60.84 484.5,52.5C 485.5,52.5 486.5,52.5 487.5,52.5C 487.666,61.1731 487.5,69.8397 487,78.5C 477.632,86.5513 466.799,89.3847 454.5,87C 436.352,82.6817 426.686,71.1817 425.5,52.5C 426.878,33.802 436.544,22.1354 454.5,17.5 Z"/></g>
<g><path style="opacity:0.984" fill="#000000" d="M 95.5,50.5 C 110.848,50.1673 126.181,50.5006 141.5,51.5C 133.833,51.8333 126.167,52.1667 118.5,52.5C 110.47,52.4976 102.803,51.8309 95.5,50.5 Z"/></g>
<g><path style="opacity:0.984" fill="#000000" d="M 226.5,50.5 C 241.848,50.1673 257.181,50.5006 272.5,51.5C 264.833,51.8333 257.167,52.1667 249.5,52.5C 241.47,52.4976 233.803,51.8309 226.5,50.5 Z"/></g>
<g><path style="opacity:0.984" fill="#000000" d="M 95.5,85.5 C 110.848,85.1673 126.181,85.5006 141.5,86.5C 133.833,86.8333 126.167,87.1667 118.5,87.5C 110.47,87.4976 102.803,86.8309 95.5,85.5 Z"/></g>
<g><path style="opacity:0.984" fill="#000000" d="M 226.5,85.5 C 241.848,85.1673 257.181,85.5006 272.5,86.5C 264.833,86.8333 257.167,87.1667 249.5,87.5C 241.47,87.4976 233.803,86.8309 226.5,85.5 Z"/></g>
</svg>
